<?xml version="1.0" standalone="no"?>
 <!DOCTYPE svg PUBLIC "-//W3C//DTD SVG 1.1//EN" 
 "http://www.w3.org/Graphics/SVG/1.1/DTD/svg11.dtd"> 
<svg
  xmlns:svg="http://www.w3.org/2000/svg"
  xmlns="http://www.w3.org/2000/svg"
  xmlns:xlink="http://www.w3.org/1999/xlink"
  xmlns:inkscape="http://www.inkscape.org/namespaces/inkscape"
  version="1.1"
  width="64.9986mm" height="55.9816mm" viewBox="0.0000 0.0000 64.9986 55.9816">
<title>SVG Image created as pcb-bottom.svg date 2026-05-18T07:54:55 </title>
  <desc>Image generated by PCBNEW </desc>
<g style="fill:#000000; fill-opacity:1.0000;stroke:#000000; stroke-opacity:1.0000;
stroke-linecap:round; stroke-linejoin:round;"
 transform="translate(0 0) scale(1 1)">
</g>
<g style="fill:none; 
stroke:#C872AB; stroke-width:0.1500; stroke-opacity:1; 
stroke-linecap:round; stroke-linejoin:round;">
<path d="M-157.9700 -54.3900
L-49.9700 -54.3900
L-49.9700 -22.3900
L-157.9700 -22.3900
L-157.9700 -54.3900
" />
<path d="M-92.9700 -56.3900
L-47.9700 -56.3900
L-47.9700 -20.3900
L-92.9700 -20.3900
L-92.9700 -56.3900
" />
<path d="M-90.9700 -54.3900
L-49.9700 -54.3900
L-49.9700 -22.3900
L-90.9700 -22.3900
L-90.9700 -54.3900
" />
<path d="M-42.9700 -54.3900
L-42.9700 -56.3900
" />
<text x="-67.9700" y="-54.7400"
textLength="1.4281" font-size="1.7333" lengthAdjust="spacingAndGlyphs"
text-anchor="start" opacity="0" stroke-opacity="0">1</text>
<g class="stroked-text"><desc>1</desc>
<path d="M-66.8808 -54.7964
L-67.6237 -54.7964
" />
<path d="M-67.2523 -54.7964
L-67.2523 -56.0964
" />
<path d="M-67.2523 -56.0964
L-67.3761 -55.9107
" />
<path d="M-67.3761 -55.9107
L-67.4999 -55.7869
" />
<path d="M-67.4999 -55.7869
L-67.6237 -55.7250
" />
</g><path d="M-42.9700 -22.3900
L-42.9700 -20.3900
" />
<text x="-67.9700" y="-20.7400"
textLength="1.4281" font-size="1.7333" lengthAdjust="spacingAndGlyphs"
text-anchor="start" opacity="0" stroke-opacity="0">1</text>
<g class="stroked-text"><desc>1</desc>
<path d="M-66.8808 -20.7964
L-67.6237 -20.7964
" />
<path d="M-67.2523 -20.7964
L-67.2523 -22.0964
" />
<path d="M-67.2523 -22.0964
L-67.3761 -21.9107
" />
<path d="M-67.3761 -21.9107
L-67.4999 -21.7869
" />
<path d="M-67.4999 -21.7869
L-67.6237 -21.7250
" />
</g><path d="M-92.9700 -6.3900
L-90.9700 -6.3900
" />
<text x="-91.9700" y="-30.7400"
textLength="1.3043" font-size="1.7333" lengthAdjust="spacingAndGlyphs"
text-anchor="middle" opacity="0" stroke-opacity="0">A</text>
<g class="stroked-text"><desc>A</desc>
<path d="M-92.2795 -31.1678
L-91.6605 -31.1678
" />
<path d="M-92.4033 -30.7964
L-91.9700 -32.0964
" />
<path d="M-91.9700 -32.0964
L-91.5367 -30.7964
" />
</g><path d="M-47.9700 -6.3900
L-49.9700 -6.3900
" />
<text x="-48.9700" y="-30.7400"
textLength="1.3043" font-size="1.7333" lengthAdjust="spacingAndGlyphs"
text-anchor="middle" opacity="0" stroke-opacity="0">A</text>
<g class="stroked-text"><desc>A</desc>
<path d="M-49.2795 -31.1678
L-48.6605 -31.1678
" />
<path d="M-49.4033 -30.7964
L-48.9700 -32.0964
" />
<path d="M-48.9700 -32.0964
L-48.5367 -30.7964
" />
</g><text x="-134.9700" y="-26.5400"
textLength="7.0071" font-size="2.0000" lengthAdjust="spacingAndGlyphs"
text-anchor="start" opacity="0" stroke-opacity="0">Date: </text>
<g class="stroked-text"><desc>Date: </desc>
<path d="M-134.5142 -26.6039
L-134.5142 -28.1039
" />
<path d="M-134.5142 -28.1039
L-134.1570 -28.1039
" />
<path d="M-134.1570 -28.1039
L-133.9427 -28.0324
" />
<path d="M-133.9427 -28.0324
L-133.7999 -27.8896
" />
<path d="M-133.7999 -27.8896
L-133.7285 -27.7467
" />
<path d="M-133.7285 -27.7467
L-133.6570 -27.4610
" />
<path d="M-133.6570 -27.4610
L-133.6570 -27.2467
" />
<path d="M-133.6570 -27.2467
L-133.7285 -26.9610
" />
<path d="M-133.7285 -26.9610
L-133.7999 -26.8182
" />
<path d="M-133.7999 -26.8182
L-133.9427 -26.6753
" />
<path d="M-133.9427 -26.6753
L-134.1570 -26.6039
" />
<path d="M-134.1570 -26.6039
L-134.5142 -26.6039
" />
<path d="M-132.3713 -26.6039
L-132.3713 -27.3896
" />
<path d="M-132.3713 -27.3896
L-132.4427 -27.5324
" />
<path d="M-132.4427 -27.5324
L-132.5856 -27.6039
" />
<path d="M-132.5856 -27.6039
L-132.8713 -27.6039
" />
<path d="M-132.8713 -27.6039
L-133.0142 -27.5324
" />
<path d="M-132.3713 -26.6753
L-132.5142 -26.6039
" />
<path d="M-132.5142 -26.6039
L-132.8713 -26.6039
" />
<path d="M-132.8713 -26.6039
L-133.0142 -26.6753
" />
<path d="M-133.0142 -26.6753
L-133.0856 -26.8182
" />
<path d="M-133.0856 -26.8182
L-133.0856 -26.9610
" />
<path d="M-133.0856 -26.9610
L-133.0142 -27.1039
" />
<path d="M-133.0142 -27.1039
L-132.8713 -27.1753
" />
<path d="M-132.8713 -27.1753
L-132.5142 -27.1753
" />
<path d="M-132.5142 -27.1753
L-132.3713 -27.2467
" />
<path d="M-131.8713 -27.6039
L-131.2999 -27.6039
" />
<path d="M-131.6570 -28.1039
L-131.6570 -26.8182
" />
<path d="M-131.6570 -26.8182
L-131.5856 -26.6753
" />
<path d="M-131.5856 -26.6753
L-131.4427 -26.6039
" />
<path d="M-131.4427 -26.6039
L-131.2999 -26.6039
" />
<path d="M-130.2285 -26.6753
L-130.3713 -26.6039
" />
<path d="M-130.3713 -26.6039
L-130.6570 -26.6039
" />
<path d="M-130.6570 -26.6039
L-130.7999 -26.6753
" />
<path d="M-130.7999 -26.6753
L-130.8713 -26.8182
" />
<path d="M-130.8713 -26.8182
L-130.8713 -27.3896
" />
<path d="M-130.8713 -27.3896
L-130.7999 -27.5324
" />
<path d="M-130.7999 -27.5324
L-130.6570 -27.6039
" />
<path d="M-130.6570 -27.6039
L-130.3713 -27.6039
" />
<path d="M-130.3713 -27.6039
L-130.2285 -27.5324
" />
<path d="M-130.2285 -27.5324
L-130.1570 -27.3896
" />
<path d="M-130.1570 -27.3896
L-130.1570 -27.2467
" />
<path d="M-130.1570 -27.2467
L-130.8713 -27.1039
" />
<path d="M-129.5142 -26.7467
L-129.4427 -26.6753
" />
<path d="M-129.4427 -26.6753
L-129.5142 -26.6039
" />
<path d="M-129.5142 -26.6039
L-129.5856 -26.6753
" />
<path d="M-129.5856 -26.6753
L-129.5142 -26.7467
" />
<path d="M-129.5142 -26.7467
L-129.5142 -26.6039
" />
<path d="M-129.5142 -27.5324
L-129.4427 -27.4610
" />
<path d="M-129.4427 -27.4610
L-129.5142 -27.3896
" />
<path d="M-129.5142 -27.3896
L-129.5856 -27.4610
" />
<path d="M-129.5856 -27.4610
L-129.5142 -27.5324
" />
<path d="M-129.5142 -27.5324
L-129.5142 -27.3896
" />
</g><path d="M-157.9700 -25.8900
L-49.9700 -25.8900
" />
<text x="-156.9700" y="-23.7400"
textLength="22.2929" font-size="2.0000" lengthAdjust="spacingAndGlyphs"
text-anchor="start" opacity="0" stroke-opacity="0">KiCad E.D.A. 10.0.1</text>
<g class="stroked-text"><desc>KiCad E.D.A. 10.0.1</desc>
<path d="M-156.5142 -23.8039
L-156.5142 -25.3039
" />
<path d="M-155.6570 -23.8039
L-156.2999 -24.6610
" />
<path d="M-155.6570 -25.3039
L-156.5142 -24.4467
" />
<path d="M-155.0142 -23.8039
L-155.0142 -24.8039
" />
<path d="M-155.0142 -25.3039
L-155.0856 -25.2324
" />
<path d="M-155.0856 -25.2324
L-155.0142 -25.1610
" />
<path d="M-155.0142 -25.1610
L-154.9427 -25.2324
" />
<path d="M-154.9427 -25.2324
L-155.0142 -25.3039
" />
<path d="M-155.0142 -25.3039
L-155.0142 -25.1610
" />
<path d="M-153.4427 -23.9467
L-153.5142 -23.8753
" />
<path d="M-153.5142 -23.8753
L-153.7285 -23.8039
" />
<path d="M-153.7285 -23.8039
L-153.8713 -23.8039
" />
<path d="M-153.8713 -23.8039
L-154.0856 -23.8753
" />
<path d="M-154.0856 -23.8753
L-154.2285 -24.0182
" />
<path d="M-154.2285 -24.0182
L-154.2999 -24.1610
" />
<path d="M-154.2999 -24.1610
L-154.3713 -24.4467
" />
<path d="M-154.3713 -24.4467
L-154.3713 -24.6610
" />
<path d="M-154.3713 -24.6610
L-154.2999 -24.9467
" />
<path d="M-154.2999 -24.9467
L-154.2285 -25.0896
" />
<path d="M-154.2285 -25.0896
L-154.0856 -25.2324
" />
<path d="M-154.0856 -25.2324
L-153.8713 -25.3039
" />
<path d="M-153.8713 -25.3039
L-153.7285 -25.3039
" />
<path d="M-153.7285 -25.3039
L-153.5142 -25.2324
" />
<path d="M-153.5142 -25.2324
L-153.4427 -25.1610
" />
<path d="M-152.1570 -23.8039
L-152.1570 -24.5896
" />
<path d="M-152.1570 -24.5896
L-152.2285 -24.7324
" />
<path d="M-152.2285 -24.7324
L-152.3713 -24.8039
" />
<path d="M-152.3713 -24.8039
L-152.6570 -24.8039
" />
<path d="M-152.6570 -24.8039
L-152.7999 -24.7324
" />
<path d="M-152.1570 -23.8753
L-152.2999 -23.8039
" />
<path d="M-152.2999 -23.8039
L-152.6570 -23.8039
" />
<path d="M-152.6570 -23.8039
L-152.7999 -23.8753
" />
<path d="M-152.7999 -23.8753
L-152.8713 -24.0182
" />
<path d="M-152.8713 -24.0182
L-152.8713 -24.1610
" />
<path d="M-152.8713 -24.1610
L-152.7999 -24.3039
" />
<path d="M-152.7999 -24.3039
L-152.6570 -24.3753
" />
<path d="M-152.6570 -24.3753
L-152.2999 -24.3753
" />
<path d="M-152.2999 -24.3753
L-152.1570 -24.4467
" />
<path d="M-150.7999 -23.8039
L-150.7999 -25.3039
" />
<path d="M-150.7999 -23.8753
L-150.9427 -23.8039
" />
<path d="M-150.9427 -23.8039
L-151.2285 -23.8039
" />
<path d="M-151.2285 -23.8039
L-151.3713 -23.8753
" />
<path d="M-151.3713 -23.8753
L-151.4427 -23.9467
" />
<path d="M-151.4427 -23.9467
L-151.5142 -24.0896
" />
<path d="M-151.5142 -24.0896
L-151.5142 -24.5182
" />
<path d="M-151.5142 -24.5182
L-151.4427 -24.6610
" />
<path d="M-151.4427 -24.6610
L-151.3713 -24.7324
" />
<path d="M-151.3713 -24.7324
L-151.2285 -24.8039
" />
<path d="M-151.2285 -24.8039
L-150.9427 -24.8039
" />
<path d="M-150.9427 -24.8039
L-150.7999 -24.7324
" />
<path d="M-148.9427 -24.5896
L-148.4427 -24.5896
" />
<path d="M-148.2285 -23.8039
L-148.9427 -23.8039
" />
<path d="M-148.9427 -23.8039
L-148.9427 -25.3039
" />
<path d="M-148.9427 -25.3039
L-148.2285 -25.3039
" />
<path d="M-147.5856 -23.9467
L-147.5142 -23.8753
" />
<path d="M-147.5142 -23.8753
L-147.5856 -23.8039
" />
<path d="M-147.5856 -23.8039
L-147.6570 -23.8753
" />
<path d="M-147.6570 -23.8753
L-147.5856 -23.9467
" />
<path d="M-147.5856 -23.9467
L-147.5856 -23.8039
" />
<path d="M-146.8713 -23.8039
L-146.8713 -25.3039
" />
<path d="M-146.8713 -25.3039
L-146.5142 -25.3039
" />
<path d="M-146.5142 -25.3039
L-146.2999 -25.2324
" />
<path d="M-146.2999 -25.2324
L-146.1570 -25.0896
" />
<path d="M-146.1570 -25.0896
L-146.0856 -24.9467
" />
<path d="M-146.0856 -24.9467
L-146.0142 -24.6610
" />
<path d="M-146.0142 -24.6610
L-146.0142 -24.4467
" />
<path d="M-146.0142 -24.4467
L-146.0856 -24.1610
" />
<path d="M-146.0856 -24.1610
L-146.1570 -24.0182
" />
<path d="M-146.1570 -24.0182
L-146.2999 -23.8753
" />
<path d="M-146.2999 -23.8753
L-146.5142 -23.8039
" />
<path d="M-146.5142 -23.8039
L-146.8713 -23.8039
" />
<path d="M-145.3713 -23.9467
L-145.2999 -23.8753
" />
<path d="M-145.2999 -23.8753
L-145.3713 -23.8039
" />
<path d="M-145.3713 -23.8039
L-145.4427 -23.8753
" />
<path d="M-145.4427 -23.8753
L-145.3713 -23.9467
" />
<path d="M-145.3713 -23.9467
L-145.3713 -23.8039
" />
<path d="M-144.7285 -24.2324
L-144.0142 -24.2324
" />
<path d="M-144.8713 -23.8039
L-144.3713 -25.3039
" />
<path d="M-144.3713 -25.3039
L-143.8713 -23.8039
" />
<path d="M-143.3713 -23.9467
L-143.2999 -23.8753
" />
<path d="M-143.2999 -23.8753
L-143.3713 -23.8039
" />
<path d="M-143.3713 -23.8039
L-143.4427 -23.8753
" />
<path d="M-143.4427 -23.8753
L-143.3713 -23.9467
" />
<path d="M-143.3713 -23.9467
L-143.3713 -23.8039
" />
<path d="M-140.7285 -23.8039
L-141.5856 -23.8039
" />
<path d="M-141.1570 -23.8039
L-141.1570 -25.3039
" />
<path d="M-141.1570 -25.3039
L-141.2999 -25.0896
" />
<path d="M-141.2999 -25.0896
L-141.4427 -24.9467
" />
<path d="M-141.4427 -24.9467
L-141.5856 -24.8753
" />
<path d="M-139.7999 -25.3039
L-139.6570 -25.3039
" />
<path d="M-139.6570 -25.3039
L-139.5142 -25.2324
" />
<path d="M-139.5142 -25.2324
L-139.4427 -25.1610
" />
<path d="M-139.4427 -25.1610
L-139.3713 -25.0182
" />
<path d="M-139.3713 -25.0182
L-139.2999 -24.7324
" />
<path d="M-139.2999 -24.7324
L-139.2999 -24.3753
" />
<path d="M-139.2999 -24.3753
L-139.3713 -24.0896
" />
<path d="M-139.3713 -24.0896
L-139.4427 -23.9467
" />
<path d="M-139.4427 -23.9467
L-139.5142 -23.8753
" />
<path d="M-139.5142 -23.8753
L-139.6570 -23.8039
" />
<path d="M-139.6570 -23.8039
L-139.7999 -23.8039
" />
<path d="M-139.7999 -23.8039
L-139.9427 -23.8753
" />
<path d="M-139.9427 -23.8753
L-140.0142 -23.9467
" />
<path d="M-140.0142 -23.9467
L-140.0856 -24.0896
" />
<path d="M-140.0856 -24.0896
L-140.1570 -24.3753
" />
<path d="M-140.1570 -24.3753
L-140.1570 -24.7324
" />
<path d="M-140.1570 -24.7324
L-140.0856 -25.0182
" />
<path d="M-140.0856 -25.0182
L-140.0142 -25.1610
" />
<path d="M-140.0142 -25.1610
L-139.9427 -25.2324
" />
<path d="M-139.9427 -25.2324
L-139.7999 -25.3039
" />
<path d="M-138.6570 -23.9467
L-138.5856 -23.8753
" />
<path d="M-138.5856 -23.8753
L-138.6570 -23.8039
" />
<path d="M-138.6570 -23.8039
L-138.7285 -23.8753
" />
<path d="M-138.7285 -23.8753
L-138.6570 -23.9467
" />
<path d="M-138.6570 -23.9467
L-138.6570 -23.8039
" />
<path d="M-137.6570 -25.3039
L-137.5142 -25.3039
" />
<path d="M-137.5142 -25.3039
L-137.3713 -25.2324
" />
<path d="M-137.3713 -25.2324
L-137.2999 -25.1610
" />
<path d="M-137.2999 -25.1610
L-137.2285 -25.0182
" />
<path d="M-137.2285 -25.0182
L-137.1570 -24.7324
" />
<path d="M-137.1570 -24.7324
L-137.1570 -24.3753
" />
<path d="M-137.1570 -24.3753
L-137.2285 -24.0896
" />
<path d="M-137.2285 -24.0896
L-137.2999 -23.9467
" />
<path d="M-137.2999 -23.9467
L-137.3713 -23.8753
" />
<path d="M-137.3713 -23.8753
L-137.5142 -23.8039
" />
<path d="M-137.5142 -23.8039
L-137.6570 -23.8039
" />
<path d="M-137.6570 -23.8039
L-137.7999 -23.8753
" />
<path d="M-137.7999 -23.8753
L-137.8713 -23.9467
" />
<path d="M-137.8713 -23.9467
L-137.9427 -24.0896
" />
<path d="M-137.9427 -24.0896
L-138.0142 -24.3753
" />
<path d="M-138.0142 -24.3753
L-138.0142 -24.7324
" />
<path d="M-138.0142 -24.7324
L-137.9427 -25.0182
" />
<path d="M-137.9427 -25.0182
L-137.8713 -25.1610
" />
<path d="M-137.8713 -25.1610
L-137.7999 -25.2324
" />
<path d="M-137.7999 -25.2324
L-137.6570 -25.3039
" />
<path d="M-136.5142 -23.9467
L-136.4427 -23.8753
" />
<path d="M-136.4427 -23.8753
L-136.5142 -23.8039
" />
<path d="M-136.5142 -23.8039
L-136.5856 -23.8753
" />
<path d="M-136.5856 -23.8753
L-136.5142 -23.9467
" />
<path d="M-136.5142 -23.9467
L-136.5142 -23.8039
" />
<path d="M-135.0142 -23.8039
L-135.8713 -23.8039
" />
<path d="M-135.4427 -23.8039
L-135.4427 -25.3039
" />
<path d="M-135.4427 -25.3039
L-135.5856 -25.0896
" />
<path d="M-135.5856 -25.0896
L-135.7285 -24.9467
" />
<path d="M-135.7285 -24.9467
L-135.8713 -24.8753
" />
</g><path d="M-157.9700 -28.8900
L-49.9700 -28.8900
" />
</g>
<g style="fill:none; 
stroke:#C872AB; stroke-width:0.3000; stroke-opacity:1; 
stroke-linecap:round; stroke-linejoin:round;">
<text x="-71.9700" y="-26.5400"
textLength="6.3857" font-size="2.0000" lengthAdjust="spacingAndGlyphs"
text-anchor="start" opacity="0" stroke-opacity="0">Rev: </text>
<g class="stroked-text"><desc>Rev: </desc>
<path d="M-70.5583 -26.6117
L-71.0583 -27.3260
" />
<path d="M-71.4155 -26.6117
L-71.4155 -28.1117
" />
<path d="M-71.4155 -28.1117
L-70.8441 -28.1117
" />
<path d="M-70.8441 -28.1117
L-70.7012 -28.0402
" />
<path d="M-70.7012 -28.0402
L-70.6298 -27.9688
" />
<path d="M-70.6298 -27.9688
L-70.5583 -27.8260
" />
<path d="M-70.5583 -27.8260
L-70.5583 -27.6117
" />
<path d="M-70.5583 -27.6117
L-70.6298 -27.4688
" />
<path d="M-70.6298 -27.4688
L-70.7012 -27.3974
" />
<path d="M-70.7012 -27.3974
L-70.8441 -27.3260
" />
<path d="M-70.8441 -27.3260
L-71.4155 -27.3260
" />
<path d="M-69.3441 -26.6831
L-69.4869 -26.6117
" />
<path d="M-69.4869 -26.6117
L-69.7726 -26.6117
" />
<path d="M-69.7726 -26.6117
L-69.9155 -26.6831
" />
<path d="M-69.9155 -26.6831
L-69.9869 -26.8260
" />
<path d="M-69.9869 -26.8260
L-69.9869 -27.3974
" />
<path d="M-69.9869 -27.3974
L-69.9155 -27.5402
" />
<path d="M-69.9155 -27.5402
L-69.7726 -27.6117
" />
<path d="M-69.7726 -27.6117
L-69.4869 -27.6117
" />
<path d="M-69.4869 -27.6117
L-69.3441 -27.5402
" />
<path d="M-69.3441 -27.5402
L-69.2726 -27.3974
" />
<path d="M-69.2726 -27.3974
L-69.2726 -27.2545
" />
<path d="M-69.2726 -27.2545
L-69.9869 -27.1117
" />
<path d="M-68.7726 -27.6117
L-68.4155 -26.6117
" />
<path d="M-68.4155 -26.6117
L-68.0583 -27.6117
" />
<path d="M-67.4869 -26.7545
L-67.4155 -26.6831
" />
<path d="M-67.4155 -26.6831
L-67.4869 -26.6117
" />
<path d="M-67.4869 -26.6117
L-67.5583 -26.6831
" />
<path d="M-67.5583 -26.6831
L-67.4869 -26.7545
" />
<path d="M-67.4869 -26.7545
L-67.4869 -26.6117
" />
<path d="M-67.4869 -27.5402
L-67.4155 -27.4688
" />
<path d="M-67.4155 -27.4688
L-67.4869 -27.3974
" />
<path d="M-67.4869 -27.3974
L-67.5583 -27.4688
" />
<path d="M-67.5583 -27.4688
L-67.4869 -27.5402
" />
<path d="M-67.4869 -27.5402
L-67.4869 -27.3974
" />
</g></g>
<g style="fill:none; 
stroke:#C872AB; stroke-width:0.1500; stroke-opacity:1; 
stroke-linecap:round; stroke-linejoin:round;">
<text x="-156.9700" y="-26.5400"
textLength="11.6500" font-size="2.0000" lengthAdjust="spacingAndGlyphs"
text-anchor="start" opacity="0" stroke-opacity="0">Size: User</text>
<g class="stroked-text"><desc>Size: User</desc>
<path d="M-156.5856 -26.6753
L-156.3713 -26.6039
" />
<path d="M-156.3713 -26.6039
L-156.0142 -26.6039
" />
<path d="M-156.0142 -26.6039
L-155.8713 -26.6753
" />
<path d="M-155.8713 -26.6753
L-155.7999 -26.7467
" />
<path d="M-155.7999 -26.7467
L-155.7285 -26.8896
" />
<path d="M-155.7285 -26.8896
L-155.7285 -27.0324
" />
<path d="M-155.7285 -27.0324
L-155.7999 -27.1753
" />
<path d="M-155.7999 -27.1753
L-155.8713 -27.2467
" />
<path d="M-155.8713 -27.2467
L-156.0142 -27.3182
" />
<path d="M-156.0142 -27.3182
L-156.2999 -27.3896
" />
<path d="M-156.2999 -27.3896
L-156.4427 -27.4610
" />
<path d="M-156.4427 -27.4610
L-156.5142 -27.5324
" />
<path d="M-156.5142 -27.5324
L-156.5856 -27.6753
" />
<path d="M-156.5856 -27.6753
L-156.5856 -27.8182
" />
<path d="M-156.5856 -27.8182
L-156.5142 -27.9610
" />
<path d="M-156.5142 -27.9610
L-156.4427 -28.0324
" />
<path d="M-156.4427 -28.0324
L-156.2999 -28.1039
" />
<path d="M-156.2999 -28.1039
L-155.9427 -28.1039
" />
<path d="M-155.9427 -28.1039
L-155.7285 -28.0324
" />
<path d="M-155.0856 -26.6039
L-155.0856 -27.6039
" />
<path d="M-155.0856 -28.1039
L-155.1570 -28.0324
" />
<path d="M-155.1570 -28.0324
L-155.0856 -27.9610
" />
<path d="M-155.0856 -27.9610
L-155.0142 -28.0324
" />
<path d="M-155.0142 -28.0324
L-155.0856 -28.1039
" />
<path d="M-155.0856 -28.1039
L-155.0856 -27.9610
" />
<path d="M-154.5142 -27.6039
L-153.7285 -27.6039
" />
<path d="M-153.7285 -27.6039
L-154.5142 -26.6039
" />
<path d="M-154.5142 -26.6039
L-153.7285 -26.6039
" />
<path d="M-152.5856 -26.6753
L-152.7285 -26.6039
" />
<path d="M-152.7285 -26.6039
L-153.0142 -26.6039
" />
<path d="M-153.0142 -26.6039
L-153.1570 -26.6753
" />
<path d="M-153.1570 -26.6753
L-153.2285 -26.8182
" />
<path d="M-153.2285 -26.8182
L-153.2285 -27.3896
" />
<path d="M-153.2285 -27.3896
L-153.1570 -27.5324
" />
<path d="M-153.1570 -27.5324
L-153.0142 -27.6039
" />
<path d="M-153.0142 -27.6039
L-152.7285 -27.6039
" />
<path d="M-152.7285 -27.6039
L-152.5856 -27.5324
" />
<path d="M-152.5856 -27.5324
L-152.5142 -27.3896
" />
<path d="M-152.5142 -27.3896
L-152.5142 -27.2467
" />
<path d="M-152.5142 -27.2467
L-153.2285 -27.1039
" />
<path d="M-151.8713 -26.7467
L-151.7999 -26.6753
" />
<path d="M-151.7999 -26.6753
L-151.8713 -26.6039
" />
<path d="M-151.8713 -26.6039
L-151.9427 -26.6753
" />
<path d="M-151.9427 -26.6753
L-151.8713 -26.7467
" />
<path d="M-151.8713 -26.7467
L-151.8713 -26.6039
" />
<path d="M-151.8713 -27.5324
L-151.7999 -27.4610
" />
<path d="M-151.7999 -27.4610
L-151.8713 -27.3896
" />
<path d="M-151.8713 -27.3896
L-151.9427 -27.4610
" />
<path d="M-151.9427 -27.4610
L-151.8713 -27.5324
" />
<path d="M-151.8713 -27.5324
L-151.8713 -27.3896
" />
<path d="M-150.0142 -28.1039
L-150.0142 -26.8896
" />
<path d="M-150.0142 -26.8896
L-149.9427 -26.7467
" />
<path d="M-149.9427 -26.7467
L-149.8713 -26.6753
" />
<path d="M-149.8713 -26.6753
L-149.7285 -26.6039
" />
<path d="M-149.7285 -26.6039
L-149.4427 -26.6039
" />
<path d="M-149.4427 -26.6039
L-149.2999 -26.6753
" />
<path d="M-149.2999 -26.6753
L-149.2285 -26.7467
" />
<path d="M-149.2285 -26.7467
L-149.1570 -26.8896
" />
<path d="M-149.1570 -26.8896
L-149.1570 -28.1039
" />
<path d="M-148.5142 -26.6753
L-148.3713 -26.6039
" />
<path d="M-148.3713 -26.6039
L-148.0856 -26.6039
" />
<path d="M-148.0856 -26.6039
L-147.9427 -26.6753
" />
<path d="M-147.9427 -26.6753
L-147.8713 -26.8182
" />
<path d="M-147.8713 -26.8182
L-147.8713 -26.8896
" />
<path d="M-147.8713 -26.8896
L-147.9427 -27.0324
" />
<path d="M-147.9427 -27.0324
L-148.0856 -27.1039
" />
<path d="M-148.0856 -27.1039
L-148.2999 -27.1039
" />
<path d="M-148.2999 -27.1039
L-148.4427 -27.1753
" />
<path d="M-148.4427 -27.1753
L-148.5142 -27.3182
" />
<path d="M-148.5142 -27.3182
L-148.5142 -27.3896
" />
<path d="M-148.5142 -27.3896
L-148.4427 -27.5324
" />
<path d="M-148.4427 -27.5324
L-148.2999 -27.6039
" />
<path d="M-148.2999 -27.6039
L-148.0856 -27.6039
" />
<path d="M-148.0856 -27.6039
L-147.9427 -27.5324
" />
<path d="M-146.6570 -26.6753
L-146.7999 -26.6039
" />
<path d="M-146.7999 -26.6039
L-147.0856 -26.6039
" />
<path d="M-147.0856 -26.6039
L-147.2285 -26.6753
" />
<path d="M-147.2285 -26.6753
L-147.2999 -26.8182
" />
<path d="M-147.2999 -26.8182
L-147.2999 -27.3896
" />
<path d="M-147.2999 -27.3896
L-147.2285 -27.5324
" />
<path d="M-147.2285 -27.5324
L-147.0856 -27.6039
" />
<path d="M-147.0856 -27.6039
L-146.7999 -27.6039
" />
<path d="M-146.7999 -27.6039
L-146.6570 -27.5324
" />
<path d="M-146.6570 -27.5324
L-146.5856 -27.3896
" />
<path d="M-146.5856 -27.3896
L-146.5856 -27.2467
" />
<path d="M-146.5856 -27.2467
L-147.2999 -27.1039
" />
<path d="M-145.9427 -26.6039
L-145.9427 -27.6039
" />
<path d="M-145.9427 -27.3182
L-145.8713 -27.4610
" />
<path d="M-145.8713 -27.4610
L-145.7999 -27.5324
" />
<path d="M-145.7999 -27.5324
L-145.6570 -27.6039
" />
<path d="M-145.6570 -27.6039
L-145.5142 -27.6039
" />
</g><text x="-71.9700" y="-23.7400"
textLength="8.5071" font-size="2.0000" lengthAdjust="spacingAndGlyphs"
text-anchor="start" opacity="0" stroke-opacity="0">Id: 1/1</text>
<g class="stroked-text"><desc>Id: 1/1</desc>
<path d="M-71.5142 -23.8039
L-71.5142 -25.3039
" />
<path d="M-70.1570 -23.8039
L-70.1570 -25.3039
" />
<path d="M-70.1570 -23.8753
L-70.2999 -23.8039
" />
<path d="M-70.2999 -23.8039
L-70.5856 -23.8039
" />
<path d="M-70.5856 -23.8039
L-70.7285 -23.8753
" />
<path d="M-70.7285 -23.8753
L-70.7999 -23.9467
" />
<path d="M-70.7999 -23.9467
L-70.8713 -24.0896
" />
<path d="M-70.8713 -24.0896
L-70.8713 -24.5182
" />
<path d="M-70.8713 -24.5182
L-70.7999 -24.6610
" />
<path d="M-70.7999 -24.6610
L-70.7285 -24.7324
" />
<path d="M-70.7285 -24.7324
L-70.5856 -24.8039
" />
<path d="M-70.5856 -24.8039
L-70.2999 -24.8039
" />
<path d="M-70.2999 -24.8039
L-70.1570 -24.7324
" />
<path d="M-69.4427 -23.9467
L-69.3713 -23.8753
" />
<path d="M-69.3713 -23.8753
L-69.4427 -23.8039
" />
<path d="M-69.4427 -23.8039
L-69.5142 -23.8753
" />
<path d="M-69.5142 -23.8753
L-69.4427 -23.9467
" />
<path d="M-69.4427 -23.9467
L-69.4427 -23.8039
" />
<path d="M-69.4427 -24.7324
L-69.3713 -24.6610
" />
<path d="M-69.3713 -24.6610
L-69.4427 -24.5896
" />
<path d="M-69.4427 -24.5896
L-69.5142 -24.6610
" />
<path d="M-69.5142 -24.6610
L-69.4427 -24.7324
" />
<path d="M-69.4427 -24.7324
L-69.4427 -24.5896
" />
<path d="M-66.7999 -23.8039
L-67.6570 -23.8039
" />
<path d="M-67.2285 -23.8039
L-67.2285 -25.3039
" />
<path d="M-67.2285 -25.3039
L-67.3713 -25.0896
" />
<path d="M-67.3713 -25.0896
L-67.5142 -24.9467
" />
<path d="M-67.5142 -24.9467
L-67.6570 -24.8753
" />
<path d="M-65.0856 -25.3753
L-66.3713 -23.4467
" />
<path d="M-63.7999 -23.8039
L-64.6570 -23.8039
" />
<path d="M-64.2285 -23.8039
L-64.2285 -25.3039
" />
<path d="M-64.2285 -25.3039
L-64.3713 -25.0896
" />
<path d="M-64.3713 -25.0896
L-64.5142 -24.9467
" />
<path d="M-64.5142 -24.9467
L-64.6570 -24.8753
" />
</g><path d="M-157.9700 -32.8900
L-49.9700 -32.8900
" />
</g>
<g style="fill:none; 
stroke:#C872AB; stroke-width:0.4000; stroke-opacity:1; 
stroke-linecap:round; stroke-linejoin:round;">
<text x="-156.9700" y="-30.0900"
textLength="46.3238" font-size="2.6667" lengthAdjust="spacingAndGlyphs"
text-anchor="start" opacity="0" stroke-opacity="0">Title: GATE CONTROL HAT v1.2</text>
<g class="stroked-text"><desc>Title: GATE CONTROL HAT v1.2</desc>
<path d="M-156.2783 -32.1856
L-155.1354 -32.1856
" />
<path d="M-155.9568 -30.1856
L-155.7068 -32.1856
" />
<path d="M-154.7187 -30.1856
L-154.5521 -31.5189
" />
<path d="M-154.4687 -32.1856
L-154.5759 -32.0903
" />
<path d="M-154.5759 -32.0903
L-154.4926 -31.9951
" />
<path d="M-154.4926 -31.9951
L-154.3854 -32.0903
" />
<path d="M-154.3854 -32.0903
L-154.4687 -32.1856
" />
<path d="M-154.4687 -32.1856
L-154.4926 -31.9951
" />
<path d="M-153.8854 -31.5189
L-153.1235 -31.5189
" />
<path d="M-153.5164 -32.1856
L-153.7307 -30.4713
" />
<path d="M-153.7307 -30.4713
L-153.6592 -30.2808
" />
<path d="M-153.6592 -30.2808
L-153.4807 -30.1856
" />
<path d="M-153.4807 -30.1856
L-153.2902 -30.1856
" />
<path d="M-152.3378 -30.1856
L-152.5164 -30.2808
" />
<path d="M-152.5164 -30.2808
L-152.5878 -30.4713
" />
<path d="M-152.5878 -30.4713
L-152.3735 -32.1856
" />
<path d="M-150.8021 -30.2808
L-151.0045 -30.1856
" />
<path d="M-151.0045 -30.1856
L-151.3854 -30.1856
" />
<path d="M-151.3854 -30.1856
L-151.5640 -30.2808
" />
<path d="M-151.5640 -30.2808
L-151.6354 -30.4713
" />
<path d="M-151.6354 -30.4713
L-151.5402 -31.2332
" />
<path d="M-151.5402 -31.2332
L-151.4211 -31.4237
" />
<path d="M-151.4211 -31.4237
L-151.2187 -31.5189
" />
<path d="M-151.2187 -31.5189
L-150.8378 -31.5189
" />
<path d="M-150.8378 -31.5189
L-150.6592 -31.4237
" />
<path d="M-150.6592 -31.4237
L-150.5878 -31.2332
" />
<path d="M-150.5878 -31.2332
L-150.6116 -31.0427
" />
<path d="M-150.6116 -31.0427
L-151.5878 -30.8522
" />
<path d="M-149.8378 -30.3760
L-149.7545 -30.2808
" />
<path d="M-149.7545 -30.2808
L-149.8616 -30.1856
" />
<path d="M-149.8616 -30.1856
L-149.9449 -30.2808
" />
<path d="M-149.9449 -30.2808
L-149.8378 -30.3760
" />
<path d="M-149.8378 -30.3760
L-149.8616 -30.1856
" />
<path d="M-149.7068 -31.4237
L-149.6235 -31.3284
" />
<path d="M-149.6235 -31.3284
L-149.7307 -31.2332
" />
<path d="M-149.7307 -31.2332
L-149.8140 -31.3284
" />
<path d="M-149.8140 -31.3284
L-149.7068 -31.4237
" />
<path d="M-149.7068 -31.4237
L-149.7307 -31.2332
" />
<path d="M-146.0997 -32.0903
L-146.2783 -32.1856
" />
<path d="M-146.2783 -32.1856
L-146.5640 -32.1856
" />
<path d="M-146.5640 -32.1856
L-146.8616 -32.0903
" />
<path d="M-146.8616 -32.0903
L-147.0759 -31.8998
" />
<path d="M-147.0759 -31.8998
L-147.1949 -31.7094
" />
<path d="M-147.1949 -31.7094
L-147.3378 -31.3284
" />
<path d="M-147.3378 -31.3284
L-147.3735 -31.0427
" />
<path d="M-147.3735 -31.0427
L-147.3259 -30.6618
" />
<path d="M-147.3259 -30.6618
L-147.2545 -30.4713
" />
<path d="M-147.2545 -30.4713
L-147.0878 -30.2808
" />
<path d="M-147.0878 -30.2808
L-146.8140 -30.1856
" />
<path d="M-146.8140 -30.1856
L-146.6235 -30.1856
" />
<path d="M-146.6235 -30.1856
L-146.3259 -30.2808
" />
<path d="M-146.3259 -30.2808
L-146.2187 -30.3760
" />
<path d="M-146.2187 -30.3760
L-146.1354 -31.0427
" />
<path d="M-146.1354 -31.0427
L-146.5164 -31.0427
" />
<path d="M-145.4092 -30.7570
L-144.4568 -30.7570
" />
<path d="M-145.6711 -30.1856
L-144.7545 -32.1856
" />
<path d="M-144.7545 -32.1856
L-144.3378 -30.1856
" />
<path d="M-143.7068 -32.1856
L-142.5640 -32.1856
" />
<path d="M-143.3854 -30.1856
L-143.1354 -32.1856
" />
<path d="M-142.0164 -31.2332
L-141.3497 -31.2332
" />
<path d="M-141.1949 -30.1856
L-142.1473 -30.1856
" />
<path d="M-142.1473 -30.1856
L-141.8973 -32.1856
" />
<path d="M-141.8973 -32.1856
L-140.9449 -32.1856
" />
<path d="M-137.6473 -30.3760
L-137.7545 -30.2808
" />
<path d="M-137.7545 -30.2808
L-138.0521 -30.1856
" />
<path d="M-138.0521 -30.1856
L-138.2426 -30.1856
" />
<path d="M-138.2426 -30.1856
L-138.5164 -30.2808
" />
<path d="M-138.5164 -30.2808
L-138.6830 -30.4713
" />
<path d="M-138.6830 -30.4713
L-138.7545 -30.6618
" />
<path d="M-138.7545 -30.6618
L-138.8021 -31.0427
" />
<path d="M-138.8021 -31.0427
L-138.7664 -31.3284
" />
<path d="M-138.7664 -31.3284
L-138.6235 -31.7094
" />
<path d="M-138.6235 -31.7094
L-138.5045 -31.8998
" />
<path d="M-138.5045 -31.8998
L-138.2902 -32.0903
" />
<path d="M-138.2902 -32.0903
L-137.9926 -32.1856
" />
<path d="M-137.9926 -32.1856
L-137.8021 -32.1856
" />
<path d="M-137.8021 -32.1856
L-137.5283 -32.0903
" />
<path d="M-137.5283 -32.0903
L-137.4449 -31.9951
" />
<path d="M-136.1830 -32.1856
L-135.8021 -32.1856
" />
<path d="M-135.8021 -32.1856
L-135.6235 -32.0903
" />
<path d="M-135.6235 -32.0903
L-135.4568 -31.8998
" />
<path d="M-135.4568 -31.8998
L-135.4092 -31.5189
" />
<path d="M-135.4092 -31.5189
L-135.4926 -30.8522
" />
<path d="M-135.4926 -30.8522
L-135.6354 -30.4713
" />
<path d="M-135.6354 -30.4713
L-135.8497 -30.2808
" />
<path d="M-135.8497 -30.2808
L-136.0521 -30.1856
" />
<path d="M-136.0521 -30.1856
L-136.4330 -30.1856
" />
<path d="M-136.4330 -30.1856
L-136.6116 -30.2808
" />
<path d="M-136.6116 -30.2808
L-136.7783 -30.4713
" />
<path d="M-136.7783 -30.4713
L-136.8259 -30.8522
" />
<path d="M-136.8259 -30.8522
L-136.7426 -31.5189
" />
<path d="M-136.7426 -31.5189
L-136.5997 -31.8998
" />
<path d="M-136.5997 -31.8998
L-136.3854 -32.0903
" />
<path d="M-136.3854 -32.0903
L-136.1830 -32.1856
" />
<path d="M-134.7187 -30.1856
L-134.4687 -32.1856
" />
<path d="M-134.4687 -32.1856
L-133.5759 -30.1856
" />
<path d="M-133.5759 -30.1856
L-133.3259 -32.1856
" />
<path d="M-132.6592 -32.1856
L-131.5164 -32.1856
" />
<path d="M-132.3378 -30.1856
L-132.0878 -32.1856
" />
<path d="M-129.9568 -30.1856
L-130.5045 -31.1379
" />
<path d="M-131.0997 -30.1856
L-130.8497 -32.1856
" />
<path d="M-130.8497 -32.1856
L-130.0878 -32.1856
" />
<path d="M-130.0878 -32.1856
L-129.9092 -32.0903
" />
<path d="M-129.9092 -32.0903
L-129.8259 -31.9951
" />
<path d="M-129.8259 -31.9951
L-129.7545 -31.8046
" />
<path d="M-129.7545 -31.8046
L-129.7902 -31.5189
" />
<path d="M-129.7902 -31.5189
L-129.9092 -31.3284
" />
<path d="M-129.9092 -31.3284
L-130.0164 -31.2332
" />
<path d="M-130.0164 -31.2332
L-130.2187 -31.1379
" />
<path d="M-130.2187 -31.1379
L-130.9806 -31.1379
" />
<path d="M-128.4687 -32.1856
L-128.0878 -32.1856
" />
<path d="M-128.0878 -32.1856
L-127.9092 -32.0903
" />
<path d="M-127.9092 -32.0903
L-127.7426 -31.8998
" />
<path d="M-127.7426 -31.8998
L-127.6949 -31.5189
" />
<path d="M-127.6949 -31.5189
L-127.7783 -30.8522
" />
<path d="M-127.7783 -30.8522
L-127.9211 -30.4713
" />
<path d="M-127.9211 -30.4713
L-128.1354 -30.2808
" />
<path d="M-128.1354 -30.2808
L-128.3378 -30.1856
" />
<path d="M-128.3378 -30.1856
L-128.7187 -30.1856
" />
<path d="M-128.7187 -30.1856
L-128.8973 -30.2808
" />
<path d="M-128.8973 -30.2808
L-129.0640 -30.4713
" />
<path d="M-129.0640 -30.4713
L-129.1116 -30.8522
" />
<path d="M-129.1116 -30.8522
L-129.0283 -31.5189
" />
<path d="M-129.0283 -31.5189
L-128.8854 -31.8998
" />
<path d="M-128.8854 -31.8998
L-128.6711 -32.0903
" />
<path d="M-128.6711 -32.0903
L-128.4687 -32.1856
" />
<path d="M-126.0521 -30.1856
L-127.0045 -30.1856
" />
<path d="M-127.0045 -30.1856
L-126.7545 -32.1856
" />
<path d="M-123.8616 -30.1856
L-123.6116 -32.1856
" />
<path d="M-123.7306 -31.2332
L-122.5878 -31.2332
" />
<path d="M-122.7187 -30.1856
L-122.4687 -32.1856
" />
<path d="M-121.7902 -30.7570
L-120.8378 -30.7570
" />
<path d="M-122.0521 -30.1856
L-121.1354 -32.1856
" />
<path d="M-121.1354 -32.1856
L-120.7187 -30.1856
" />
<path d="M-120.0878 -32.1856
L-118.9449 -32.1856
" />
<path d="M-119.7664 -30.1856
L-119.5164 -32.1856
" />
<path d="M-117.0283 -31.5189
L-116.7187 -30.1856
" />
<path d="M-116.7187 -30.1856
L-116.0759 -31.5189
" />
<path d="M-114.4330 -30.1856
L-115.5759 -30.1856
" />
<path d="M-115.0045 -30.1856
L-114.7545 -32.1856
" />
<path d="M-114.7545 -32.1856
L-114.9806 -31.8998
" />
<path d="M-114.9806 -31.8998
L-115.1949 -31.7094
" />
<path d="M-115.1949 -31.7094
L-115.3973 -31.6141
" />
<path d="M-113.5521 -30.3760
L-113.4687 -30.2808
" />
<path d="M-113.4687 -30.2808
L-113.5759 -30.1856
" />
<path d="M-113.5759 -30.1856
L-113.6592 -30.2808
" />
<path d="M-113.6592 -30.2808
L-113.5521 -30.3760
" />
<path d="M-113.5521 -30.3760
L-113.5759 -30.1856
" />
<path d="M-112.4926 -31.9951
L-112.3854 -32.0903
" />
<path d="M-112.3854 -32.0903
L-112.1830 -32.1856
" />
<path d="M-112.1830 -32.1856
L-111.7068 -32.1856
" />
<path d="M-111.7068 -32.1856
L-111.5283 -32.0903
" />
<path d="M-111.5283 -32.0903
L-111.4449 -31.9951
" />
<path d="M-111.4449 -31.9951
L-111.3735 -31.8046
" />
<path d="M-111.3735 -31.8046
L-111.3973 -31.6141
" />
<path d="M-111.3973 -31.6141
L-111.5283 -31.3284
" />
<path d="M-111.5283 -31.3284
L-112.8140 -30.1856
" />
<path d="M-112.8140 -30.1856
L-111.5759 -30.1856
" />
</g></g>
<g style="fill:none; 
stroke:#C872AB; stroke-width:0.1500; stroke-opacity:1; 
stroke-linecap:round; stroke-linejoin:round;">
<text x="-156.9700" y="-33.9400"
textLength="45.3643" font-size="2.0000" lengthAdjust="spacingAndGlyphs"
text-anchor="start" opacity="0" stroke-opacity="0">File: GATE CONTROL HAT v1.2.kicad_pcb</text>
<g class="stroked-text"><desc>File: GATE CONTROL HAT v1.2.kicad_pcb</desc>
<path d="M-156.0142 -34.7896
L-156.5142 -34.7896
" />
<path d="M-156.5142 -34.0039
L-156.5142 -35.5039
" />
<path d="M-156.5142 -35.5039
L-155.7999 -35.5039
" />
<path d="M-155.2285 -34.0039
L-155.2285 -35.0039
" />
<path d="M-155.2285 -35.5039
L-155.2999 -35.4324
" />
<path d="M-155.2999 -35.4324
L-155.2285 -35.3610
" />
<path d="M-155.2285 -35.3610
L-155.1570 -35.4324
" />
<path d="M-155.1570 -35.4324
L-155.2285 -35.5039
" />
<path d="M-155.2285 -35.5039
L-155.2285 -35.3610
" />
<path d="M-154.2999 -34.0039
L-154.4427 -34.0753
" />
<path d="M-154.4427 -34.0753
L-154.5142 -34.2182
" />
<path d="M-154.5142 -34.2182
L-154.5142 -35.5039
" />
<path d="M-153.1570 -34.0753
L-153.2999 -34.0039
" />
<path d="M-153.2999 -34.0039
L-153.5856 -34.0039
" />
<path d="M-153.5856 -34.0039
L-153.7285 -34.0753
" />
<path d="M-153.7285 -34.0753
L-153.7999 -34.2182
" />
<path d="M-153.7999 -34.2182
L-153.7999 -34.7896
" />
<path d="M-153.7999 -34.7896
L-153.7285 -34.9324
" />
<path d="M-153.7285 -34.9324
L-153.5856 -35.0039
" />
<path d="M-153.5856 -35.0039
L-153.2999 -35.0039
" />
<path d="M-153.2999 -35.0039
L-153.1570 -34.9324
" />
<path d="M-153.1570 -34.9324
L-153.0856 -34.7896
" />
<path d="M-153.0856 -34.7896
L-153.0856 -34.6467
" />
<path d="M-153.0856 -34.6467
L-153.7999 -34.5039
" />
<path d="M-152.4427 -34.1467
L-152.3713 -34.0753
" />
<path d="M-152.3713 -34.0753
L-152.4427 -34.0039
" />
<path d="M-152.4427 -34.0039
L-152.5142 -34.0753
" />
<path d="M-152.5142 -34.0753
L-152.4427 -34.1467
" />
<path d="M-152.4427 -34.1467
L-152.4427 -34.0039
" />
<path d="M-152.4427 -34.9324
L-152.3713 -34.8610
" />
<path d="M-152.3713 -34.8610
L-152.4427 -34.7896
" />
<path d="M-152.4427 -34.7896
L-152.5142 -34.8610
" />
<path d="M-152.5142 -34.8610
L-152.4427 -34.9324
" />
<path d="M-152.4427 -34.9324
L-152.4427 -34.7896
" />
<path d="M-149.7999 -35.4324
L-149.9427 -35.5039
" />
<path d="M-149.9427 -35.5039
L-150.1570 -35.5039
" />
<path d="M-150.1570 -35.5039
L-150.3713 -35.4324
" />
<path d="M-150.3713 -35.4324
L-150.5142 -35.2896
" />
<path d="M-150.5142 -35.2896
L-150.5856 -35.1467
" />
<path d="M-150.5856 -35.1467
L-150.6570 -34.8610
" />
<path d="M-150.6570 -34.8610
L-150.6570 -34.6467
" />
<path d="M-150.6570 -34.6467
L-150.5856 -34.3610
" />
<path d="M-150.5856 -34.3610
L-150.5142 -34.2182
" />
<path d="M-150.5142 -34.2182
L-150.3713 -34.0753
" />
<path d="M-150.3713 -34.0753
L-150.1570 -34.0039
" />
<path d="M-150.1570 -34.0039
L-150.0142 -34.0039
" />
<path d="M-150.0142 -34.0039
L-149.7999 -34.0753
" />
<path d="M-149.7999 -34.0753
L-149.7285 -34.1467
" />
<path d="M-149.7285 -34.1467
L-149.7285 -34.6467
" />
<path d="M-149.7285 -34.6467
L-150.0142 -34.6467
" />
<path d="M-149.1570 -34.4324
L-148.4427 -34.4324
" />
<path d="M-149.2999 -34.0039
L-148.7999 -35.5039
" />
<path d="M-148.7999 -35.5039
L-148.2999 -34.0039
" />
<path d="M-148.0142 -35.5039
L-147.1570 -35.5039
" />
<path d="M-147.5856 -34.0039
L-147.5856 -35.5039
" />
<path d="M-146.6570 -34.7896
L-146.1570 -34.7896
" />
<path d="M-145.9427 -34.0039
L-146.6570 -34.0039
" />
<path d="M-146.6570 -34.0039
L-146.6570 -35.5039
" />
<path d="M-146.6570 -35.5039
L-145.9427 -35.5039
" />
<path d="M-143.2999 -34.1467
L-143.3713 -34.0753
" />
<path d="M-143.3713 -34.0753
L-143.5856 -34.0039
" />
<path d="M-143.5856 -34.0039
L-143.7285 -34.0039
" />
<path d="M-143.7285 -34.0039
L-143.9427 -34.0753
" />
<path d="M-143.9427 -34.0753
L-144.0856 -34.2182
" />
<path d="M-144.0856 -34.2182
L-144.1570 -34.3610
" />
<path d="M-144.1570 -34.3610
L-144.2285 -34.6467
" />
<path d="M-144.2285 -34.6467
L-144.2285 -34.8610
" />
<path d="M-144.2285 -34.8610
L-144.1570 -35.1467
" />
<path d="M-144.1570 -35.1467
L-144.0856 -35.2896
" />
<path d="M-144.0856 -35.2896
L-143.9427 -35.4324
" />
<path d="M-143.9427 -35.4324
L-143.7285 -35.5039
" />
<path d="M-143.7285 -35.5039
L-143.5856 -35.5039
" />
<path d="M-143.5856 -35.5039
L-143.3713 -35.4324
" />
<path d="M-143.3713 -35.4324
L-143.2999 -35.3610
" />
<path d="M-142.3713 -35.5039
L-142.0856 -35.5039
" />
<path d="M-142.0856 -35.5039
L-141.9427 -35.4324
" />
<path d="M-141.9427 -35.4324
L-141.7999 -35.2896
" />
<path d="M-141.7999 -35.2896
L-141.7285 -35.0039
" />
<path d="M-141.7285 -35.0039
L-141.7285 -34.5039
" />
<path d="M-141.7285 -34.5039
L-141.7999 -34.2182
" />
<path d="M-141.7999 -34.2182
L-141.9427 -34.0753
" />
<path d="M-141.9427 -34.0753
L-142.0856 -34.0039
" />
<path d="M-142.0856 -34.0039
L-142.3713 -34.0039
" />
<path d="M-142.3713 -34.0039
L-142.5142 -34.0753
" />
<path d="M-142.5142 -34.0753
L-142.6570 -34.2182
" />
<path d="M-142.6570 -34.2182
L-142.7285 -34.5039
" />
<path d="M-142.7285 -34.5039
L-142.7285 -35.0039
" />
<path d="M-142.7285 -35.0039
L-142.6570 -35.2896
" />
<path d="M-142.6570 -35.2896
L-142.5142 -35.4324
" />
<path d="M-142.5142 -35.4324
L-142.3713 -35.5039
" />
<path d="M-141.0856 -34.0039
L-141.0856 -35.5039
" />
<path d="M-141.0856 -35.5039
L-140.2285 -34.0039
" />
<path d="M-140.2285 -34.0039
L-140.2285 -35.5039
" />
<path d="M-139.7285 -35.5039
L-138.8713 -35.5039
" />
<path d="M-139.2999 -34.0039
L-139.2999 -35.5039
" />
<path d="M-137.5142 -34.0039
L-138.0142 -34.7182
" />
<path d="M-138.3713 -34.0039
L-138.3713 -35.5039
" />
<path d="M-138.3713 -35.5039
L-137.7999 -35.5039
" />
<path d="M-137.7999 -35.5039
L-137.6570 -35.4324
" />
<path d="M-137.6570 -35.4324
L-137.5856 -35.3610
" />
<path d="M-137.5856 -35.3610
L-137.5142 -35.2182
" />
<path d="M-137.5142 -35.2182
L-137.5142 -35.0039
" />
<path d="M-137.5142 -35.0039
L-137.5856 -34.8610
" />
<path d="M-137.5856 -34.8610
L-137.6570 -34.7896
" />
<path d="M-137.6570 -34.7896
L-137.7999 -34.7182
" />
<path d="M-137.7999 -34.7182
L-138.3713 -34.7182
" />
<path d="M-136.5856 -35.5039
L-136.2999 -35.5039
" />
<path d="M-136.2999 -35.5039
L-136.1570 -35.4324
" />
<path d="M-136.1570 -35.4324
L-136.0142 -35.2896
" />
<path d="M-136.0142 -35.2896
L-135.9427 -35.0039
" />
<path d="M-135.9427 -35.0039
L-135.9427 -34.5039
" />
<path d="M-135.9427 -34.5039
L-136.0142 -34.2182
" />
<path d="M-136.0142 -34.2182
L-136.1570 -34.0753
" />
<path d="M-136.1570 -34.0753
L-136.2999 -34.0039
" />
<path d="M-136.2999 -34.0039
L-136.5856 -34.0039
" />
<path d="M-136.5856 -34.0039
L-136.7285 -34.0753
" />
<path d="M-136.7285 -34.0753
L-136.8713 -34.2182
" />
<path d="M-136.8713 -34.2182
L-136.9427 -34.5039
" />
<path d="M-136.9427 -34.5039
L-136.9427 -35.0039
" />
<path d="M-136.9427 -35.0039
L-136.8713 -35.2896
" />
<path d="M-136.8713 -35.2896
L-136.7285 -35.4324
" />
<path d="M-136.7285 -35.4324
L-136.5856 -35.5039
" />
<path d="M-134.5856 -34.0039
L-135.2999 -34.0039
" />
<path d="M-135.2999 -34.0039
L-135.2999 -35.5039
" />
<path d="M-132.9427 -34.0039
L-132.9427 -35.5039
" />
<path d="M-132.9427 -34.7896
L-132.0856 -34.7896
" />
<path d="M-132.0856 -34.0039
L-132.0856 -35.5039
" />
<path d="M-131.4427 -34.4324
L-130.7285 -34.4324
" />
<path d="M-131.5856 -34.0039
L-131.0856 -35.5039
" />
<path d="M-131.0856 -35.5039
L-130.5856 -34.0039
" />
<path d="M-130.2999 -35.5039
L-129.4427 -35.5039
" />
<path d="M-129.8713 -34.0039
L-129.8713 -35.5039
" />
<path d="M-127.9427 -35.0039
L-127.5856 -34.0039
" />
<path d="M-127.5856 -34.0039
L-127.2285 -35.0039
" />
<path d="M-125.8713 -34.0039
L-126.7285 -34.0039
" />
<path d="M-126.2999 -34.0039
L-126.2999 -35.5039
" />
<path d="M-126.2999 -35.5039
L-126.4427 -35.2896
" />
<path d="M-126.4427 -35.2896
L-126.5856 -35.1467
" />
<path d="M-126.5856 -35.1467
L-126.7285 -35.0753
" />
<path d="M-125.2285 -34.1467
L-125.1570 -34.0753
" />
<path d="M-125.1570 -34.0753
L-125.2285 -34.0039
" />
<path d="M-125.2285 -34.0039
L-125.2999 -34.0753
" />
<path d="M-125.2999 -34.0753
L-125.2285 -34.1467
" />
<path d="M-125.2285 -34.1467
L-125.2285 -34.0039
" />
<path d="M-124.5856 -35.3610
L-124.5142 -35.4324
" />
<path d="M-124.5142 -35.4324
L-124.3713 -35.5039
" />
<path d="M-124.3713 -35.5039
L-124.0142 -35.5039
" />
<path d="M-124.0142 -35.5039
L-123.8713 -35.4324
" />
<path d="M-123.8713 -35.4324
L-123.7999 -35.3610
" />
<path d="M-123.7999 -35.3610
L-123.7285 -35.2182
" />
<path d="M-123.7285 -35.2182
L-123.7285 -35.0753
" />
<path d="M-123.7285 -35.0753
L-123.7999 -34.8610
" />
<path d="M-123.7999 -34.8610
L-124.6570 -34.0039
" />
<path d="M-124.6570 -34.0039
L-123.7285 -34.0039
" />
<path d="M-123.0856 -34.1467
L-123.0142 -34.0753
" />
<path d="M-123.0142 -34.0753
L-123.0856 -34.0039
" />
<path d="M-123.0856 -34.0039
L-123.1570 -34.0753
" />
<path d="M-123.1570 -34.0753
L-123.0856 -34.1467
" />
<path d="M-123.0856 -34.1467
L-123.0856 -34.0039
" />
<path d="M-122.3713 -34.0039
L-122.3713 -35.5039
" />
<path d="M-122.2285 -34.5753
L-121.7999 -34.0039
" />
<path d="M-121.7999 -35.0039
L-122.3713 -34.4324
" />
<path d="M-121.1570 -34.0039
L-121.1570 -35.0039
" />
<path d="M-121.1570 -35.5039
L-121.2285 -35.4324
" />
<path d="M-121.2285 -35.4324
L-121.1570 -35.3610
" />
<path d="M-121.1570 -35.3610
L-121.0856 -35.4324
" />
<path d="M-121.0856 -35.4324
L-121.1570 -35.5039
" />
<path d="M-121.1570 -35.5039
L-121.1570 -35.3610
" />
<path d="M-119.7999 -34.0753
L-119.9427 -34.0039
" />
<path d="M-119.9427 -34.0039
L-120.2285 -34.0039
" />
<path d="M-120.2285 -34.0039
L-120.3713 -34.0753
" />
<path d="M-120.3713 -34.0753
L-120.4427 -34.1467
" />
<path d="M-120.4427 -34.1467
L-120.5142 -34.2896
" />
<path d="M-120.5142 -34.2896
L-120.5142 -34.7182
" />
<path d="M-120.5142 -34.7182
L-120.4427 -34.8610
" />
<path d="M-120.4427 -34.8610
L-120.3713 -34.9324
" />
<path d="M-120.3713 -34.9324
L-120.2285 -35.0039
" />
<path d="M-120.2285 -35.0039
L-119.9427 -35.0039
" />
<path d="M-119.9427 -35.0039
L-119.7999 -34.9324
" />
<path d="M-118.5142 -34.0039
L-118.5142 -34.7896
" />
<path d="M-118.5142 -34.7896
L-118.5856 -34.9324
" />
<path d="M-118.5856 -34.9324
L-118.7285 -35.0039
" />
<path d="M-118.7285 -35.0039
L-119.0142 -35.0039
" />
<path d="M-119.0142 -35.0039
L-119.1570 -34.9324
" />
<path d="M-118.5142 -34.0753
L-118.6570 -34.0039
" />
<path d="M-118.6570 -34.0039
L-119.0142 -34.0039
" />
<path d="M-119.0142 -34.0039
L-119.1570 -34.0753
" />
<path d="M-119.1570 -34.0753
L-119.2285 -34.2182
" />
<path d="M-119.2285 -34.2182
L-119.2285 -34.3610
" />
<path d="M-119.2285 -34.3610
L-119.1570 -34.5039
" />
<path d="M-119.1570 -34.5039
L-119.0142 -34.5753
" />
<path d="M-119.0142 -34.5753
L-118.6570 -34.5753
" />
<path d="M-118.6570 -34.5753
L-118.5142 -34.6467
" />
<path d="M-117.1570 -34.0039
L-117.1570 -35.5039
" />
<path d="M-117.1570 -34.0753
L-117.2999 -34.0039
" />
<path d="M-117.2999 -34.0039
L-117.5856 -34.0039
" />
<path d="M-117.5856 -34.0039
L-117.7285 -34.0753
" />
<path d="M-117.7285 -34.0753
L-117.7999 -34.1467
" />
<path d="M-117.7999 -34.1467
L-117.8713 -34.2896
" />
<path d="M-117.8713 -34.2896
L-117.8713 -34.7182
" />
<path d="M-117.8713 -34.7182
L-117.7999 -34.8610
" />
<path d="M-117.7999 -34.8610
L-117.7285 -34.9324
" />
<path d="M-117.7285 -34.9324
L-117.5856 -35.0039
" />
<path d="M-117.5856 -35.0039
L-117.2999 -35.0039
" />
<path d="M-117.2999 -35.0039
L-117.1570 -34.9324
" />
<path d="M-116.7999 -33.8610
L-115.6570 -33.8610
" />
<path d="M-115.2999 -35.0039
L-115.2999 -33.5039
" />
<path d="M-115.2999 -34.9324
L-115.1570 -35.0039
" />
<path d="M-115.1570 -35.0039
L-114.8713 -35.0039
" />
<path d="M-114.8713 -35.0039
L-114.7285 -34.9324
" />
<path d="M-114.7285 -34.9324
L-114.6570 -34.8610
" />
<path d="M-114.6570 -34.8610
L-114.5856 -34.7182
" />
<path d="M-114.5856 -34.7182
L-114.5856 -34.2896
" />
<path d="M-114.5856 -34.2896
L-114.6570 -34.1467
" />
<path d="M-114.6570 -34.1467
L-114.7285 -34.0753
" />
<path d="M-114.7285 -34.0753
L-114.8713 -34.0039
" />
<path d="M-114.8713 -34.0039
L-115.1570 -34.0039
" />
<path d="M-115.1570 -34.0039
L-115.2999 -34.0753
" />
<path d="M-113.2999 -34.0753
L-113.4427 -34.0039
" />
<path d="M-113.4427 -34.0039
L-113.7285 -34.0039
" />
<path d="M-113.7285 -34.0039
L-113.8713 -34.0753
" />
<path d="M-113.8713 -34.0753
L-113.9427 -34.1467
" />
<path d="M-113.9427 -34.1467
L-114.0142 -34.2896
" />
<path d="M-114.0142 -34.2896
L-114.0142 -34.7182
" />
<path d="M-114.0142 -34.7182
L-113.9427 -34.8610
" />
<path d="M-113.9427 -34.8610
L-113.8713 -34.9324
" />
<path d="M-113.8713 -34.9324
L-113.7285 -35.0039
" />
<path d="M-113.7285 -35.0039
L-113.4427 -35.0039
" />
<path d="M-113.4427 -35.0039
L-113.2999 -34.9324
" />
<path d="M-112.6570 -34.0039
L-112.6570 -35.5039
" />
<path d="M-112.6570 -34.9324
L-112.5142 -35.0039
" />
<path d="M-112.5142 -35.0039
L-112.2285 -35.0039
" />
<path d="M-112.2285 -35.0039
L-112.0856 -34.9324
" />
<path d="M-112.0856 -34.9324
L-112.0142 -34.8610
" />
<path d="M-112.0142 -34.8610
L-111.9427 -34.7182
" />
<path d="M-111.9427 -34.7182
L-111.9427 -34.2896
" />
<path d="M-111.9427 -34.2896
L-112.0142 -34.1467
" />
<path d="M-112.0142 -34.1467
L-112.0856 -34.0753
" />
<path d="M-112.0856 -34.0753
L-112.2285 -34.0039
" />
<path d="M-112.2285 -34.0039
L-112.5142 -34.0039
" />
<path d="M-112.5142 -34.0039
L-112.6570 -34.0753
" />
</g><path d="M-157.9700 -38.8900
L-49.9700 -38.8900
" />
<text x="-156.9700" y="-36.6400"
textLength="8.2214" font-size="2.0000" lengthAdjust="spacingAndGlyphs"
text-anchor="start" opacity="0" stroke-opacity="0">Sheet: </text>
<g class="stroked-text"><desc>Sheet: </desc>
<path d="M-156.5856 -36.7753
L-156.3713 -36.7039
" />
<path d="M-156.3713 -36.7039
L-156.0142 -36.7039
" />
<path d="M-156.0142 -36.7039
L-155.8713 -36.7753
" />
<path d="M-155.8713 -36.7753
L-155.7999 -36.8467
" />
<path d="M-155.7999 -36.8467
L-155.7285 -36.9896
" />
<path d="M-155.7285 -36.9896
L-155.7285 -37.1324
" />
<path d="M-155.7285 -37.1324
L-155.7999 -37.2753
" />
<path d="M-155.7999 -37.2753
L-155.8713 -37.3467
" />
<path d="M-155.8713 -37.3467
L-156.0142 -37.4182
" />
<path d="M-156.0142 -37.4182
L-156.2999 -37.4896
" />
<path d="M-156.2999 -37.4896
L-156.4427 -37.5610
" />
<path d="M-156.4427 -37.5610
L-156.5142 -37.6324
" />
<path d="M-156.5142 -37.6324
L-156.5856 -37.7753
" />
<path d="M-156.5856 -37.7753
L-156.5856 -37.9182
" />
<path d="M-156.5856 -37.9182
L-156.5142 -38.0610
" />
<path d="M-156.5142 -38.0610
L-156.4427 -38.1324
" />
<path d="M-156.4427 -38.1324
L-156.2999 -38.2039
" />
<path d="M-156.2999 -38.2039
L-155.9427 -38.2039
" />
<path d="M-155.9427 -38.2039
L-155.7285 -38.1324
" />
<path d="M-155.0856 -36.7039
L-155.0856 -38.2039
" />
<path d="M-154.4427 -36.7039
L-154.4427 -37.4896
" />
<path d="M-154.4427 -37.4896
L-154.5142 -37.6324
" />
<path d="M-154.5142 -37.6324
L-154.6570 -37.7039
" />
<path d="M-154.6570 -37.7039
L-154.8713 -37.7039
" />
<path d="M-154.8713 -37.7039
L-155.0142 -37.6324
" />
<path d="M-155.0142 -37.6324
L-155.0856 -37.5610
" />
<path d="M-153.1570 -36.7753
L-153.2999 -36.7039
" />
<path d="M-153.2999 -36.7039
L-153.5856 -36.7039
" />
<path d="M-153.5856 -36.7039
L-153.7285 -36.7753
" />
<path d="M-153.7285 -36.7753
L-153.7999 -36.9182
" />
<path d="M-153.7999 -36.9182
L-153.7999 -37.4896
" />
<path d="M-153.7999 -37.4896
L-153.7285 -37.6324
" />
<path d="M-153.7285 -37.6324
L-153.5856 -37.7039
" />
<path d="M-153.5856 -37.7039
L-153.2999 -37.7039
" />
<path d="M-153.2999 -37.7039
L-153.1570 -37.6324
" />
<path d="M-153.1570 -37.6324
L-153.0856 -37.4896
" />
<path d="M-153.0856 -37.4896
L-153.0856 -37.3467
" />
<path d="M-153.0856 -37.3467
L-153.7999 -37.2039
" />
<path d="M-151.8713 -36.7753
L-152.0142 -36.7039
" />
<path d="M-152.0142 -36.7039
L-152.2999 -36.7039
" />
<path d="M-152.2999 -36.7039
L-152.4427 -36.7753
" />
<path d="M-152.4427 -36.7753
L-152.5142 -36.9182
" />
<path d="M-152.5142 -36.9182
L-152.5142 -37.4896
" />
<path d="M-152.5142 -37.4896
L-152.4427 -37.6324
" />
<path d="M-152.4427 -37.6324
L-152.2999 -37.7039
" />
<path d="M-152.2999 -37.7039
L-152.0142 -37.7039
" />
<path d="M-152.0142 -37.7039
L-151.8713 -37.6324
" />
<path d="M-151.8713 -37.6324
L-151.7999 -37.4896
" />
<path d="M-151.7999 -37.4896
L-151.7999 -37.3467
" />
<path d="M-151.7999 -37.3467
L-152.5142 -37.2039
" />
<path d="M-151.3713 -37.7039
L-150.7999 -37.7039
" />
<path d="M-151.1570 -38.2039
L-151.1570 -36.9182
" />
<path d="M-151.1570 -36.9182
L-151.0856 -36.7753
" />
<path d="M-151.0856 -36.7753
L-150.9427 -36.7039
" />
<path d="M-150.9427 -36.7039
L-150.7999 -36.7039
" />
<path d="M-150.2999 -36.8467
L-150.2285 -36.7753
" />
<path d="M-150.2285 -36.7753
L-150.2999 -36.7039
" />
<path d="M-150.2999 -36.7039
L-150.3713 -36.7753
" />
<path d="M-150.3713 -36.7753
L-150.2999 -36.8467
" />
<path d="M-150.2999 -36.8467
L-150.2999 -36.7039
" />
<path d="M-150.2999 -37.6324
L-150.2285 -37.5610
" />
<path d="M-150.2285 -37.5610
L-150.2999 -37.4896
" />
<path d="M-150.2999 -37.4896
L-150.3713 -37.5610
" />
<path d="M-150.3713 -37.5610
L-150.2999 -37.6324
" />
<path d="M-150.2999 -37.6324
L-150.2999 -37.4896
" />
</g></g>
<g style="fill:none; 
stroke:#C872AB; stroke-width:0.3000; stroke-opacity:1; 
stroke-linecap:round; stroke-linejoin:round;">
<text x="-156.9700" y="-39.6400"
textLength="0.9000" font-size="2.0000" lengthAdjust="spacingAndGlyphs"
text-anchor="start" opacity="0" stroke-opacity="0"></text>
<g class="stroked-text"><desc></desc>
</g></g>
<g style="fill:none; 
stroke:#C872AB; stroke-width:0.1500; stroke-opacity:1; 
stroke-linecap:round; stroke-linejoin:round;">
<text x="-156.9700" y="-42.6400"
textLength="0.4500" font-size="2.0000" lengthAdjust="spacingAndGlyphs"
text-anchor="start" opacity="0" stroke-opacity="0"></text>
<g class="stroked-text"><desc></desc>
</g><text x="-156.9700" y="-45.6400"
textLength="0.4500" font-size="2.0000" lengthAdjust="spacingAndGlyphs"
text-anchor="start" opacity="0" stroke-opacity="0"></text>
<g class="stroked-text"><desc></desc>
</g><text x="-156.9700" y="-48.6400"
textLength="0.4500" font-size="2.0000" lengthAdjust="spacingAndGlyphs"
text-anchor="start" opacity="0" stroke-opacity="0"></text>
<g class="stroked-text"><desc></desc>
</g><text x="-156.9700" y="-51.6400"
textLength="0.4500" font-size="2.0000" lengthAdjust="spacingAndGlyphs"
text-anchor="start" opacity="0" stroke-opacity="0"></text>
<g class="stroked-text"><desc></desc>
</g><path d="M-137.9700 -28.8900
L-137.9700 -25.8900
" />
<path d="M-73.9700 -28.8900
L-73.9700 -22.3900
" />
<path style="fill:#4D7FC4; fill-opacity:1.0000; stroke:none;fill-rule:evenodd;"
d="M 57.4786,3.9200
55.7786,3.9200
55.7786,5.6200
57.4786,5.6200
Z" /> 
</g>
<g style="fill:#4D7FC4; fill-opacity:1.0000; stroke:none;">
<circle cx="56.6286" cy="2.2300" r="0.8500" /> 
<circle cx="54.0886" cy="4.7700" r="0.8500" /> 
<circle cx="54.0886" cy="2.2300" r="0.8500" /> 
<circle cx="51.5486" cy="4.7700" r="0.8500" /> 
<circle cx="51.5486" cy="2.2300" r="0.8500" /> 
<circle cx="49.0086" cy="4.7700" r="0.8500" /> 
<circle cx="49.0086" cy="2.2300" r="0.8500" /> 
<circle cx="46.4686" cy="4.7700" r="0.8500" /> 
<circle cx="46.4686" cy="2.2300" r="0.8500" /> 
<circle cx="43.9286" cy="4.7700" r="0.8500" /> 
<circle cx="43.9286" cy="2.2300" r="0.8500" /> 
<circle cx="41.3886" cy="4.7700" r="0.8500" /> 
<circle cx="41.3886" cy="2.2300" r="0.8500" /> 
<circle cx="38.8486" cy="4.7700" r="0.8500" /> 
<circle cx="38.8486" cy="2.2300" r="0.8500" /> 
<circle cx="36.3086" cy="4.7700" r="0.8500" /> 
<circle cx="36.3086" cy="2.2300" r="0.8500" /> 
<circle cx="33.7686" cy="4.7700" r="0.8500" /> 
<circle cx="33.7686" cy="2.2300" r="0.8500" /> 
<circle cx="31.2286" cy="4.7700" r="0.8500" /> 
<circle cx="31.2286" cy="2.2300" r="0.8500" /> 
<circle cx="28.6886" cy="4.7700" r="0.8500" /> 
<circle cx="28.6886" cy="2.2300" r="0.8500" /> 
<circle cx="26.1486" cy="4.7700" r="0.8500" /> 
<circle cx="26.1486" cy="2.2300" r="0.8500" /> 
<circle cx="23.6086" cy="4.7700" r="0.8500" /> 
<circle cx="23.6086" cy="2.2300" r="0.8500" /> 
<circle cx="21.0686" cy="4.7700" r="0.8500" /> 
<circle cx="21.0686" cy="2.2300" r="0.8500" /> 
<circle cx="18.5286" cy="4.7700" r="0.8500" /> 
<circle cx="18.5286" cy="2.2300" r="0.8500" /> 
<circle cx="15.9886" cy="4.7700" r="0.8500" /> 
<circle cx="15.9886" cy="2.2300" r="0.8500" /> 
<circle cx="13.4486" cy="4.7700" r="0.8500" /> 
<circle cx="13.4486" cy="2.2300" r="0.8500" /> 
<circle cx="10.9086" cy="4.7700" r="0.8500" /> 
<circle cx="10.9086" cy="2.2300" r="0.8500" /> 
<circle cx="8.3686" cy="4.7700" r="0.8500" /> 
<circle cx="8.3686" cy="2.2300" r="0.8500" /> 
</g>
<g style="fill:none; 
stroke:#E8B2A7; stroke-width:0.1500; stroke-opacity:1; 
stroke-linecap:round; stroke-linejoin:round;">
<text x="56.6286" y="7.7700"
textLength="1.9643" font-size="1.3333" lengthAdjust="spacingAndGlyphs"
text-anchor="middle" opacity="0" stroke-opacity="0">J1</text>
<g class="stroked-text"><desc>J1</desc>
<path d="M56.2953 6.7248
L56.2953 7.4391
" />
<path d="M56.2953 7.4391
L56.2476 7.5820
" />
<path d="M56.2476 7.5820
L56.1524 7.6772
" />
<path d="M56.1524 7.6772
L56.0096 7.7248
" />
<path d="M56.0096 7.7248
L55.9143 7.7248
" />
<path d="M57.2953 7.7248
L56.7238 7.7248
" />
<path d="M57.0096 7.7248
L57.0096 6.7248
" />
<path d="M57.0096 6.7248
L56.9143 6.8677
" />
<path d="M56.9143 6.8677
L56.8191 6.9629
" />
<path d="M56.8191 6.9629
L56.7238 7.0105
" />
</g></g>
<g style="fill:none; 
stroke:#E8B2A7; stroke-width:0.1200; stroke-opacity:1; 
stroke-linecap:round; stroke-linejoin:round;">
<path d="M57.9586 0.9000
L57.9586 3.5000
" />
<path d="M57.9586 0.9000
L7.0386 0.9000
" />
<path d="M57.9586 3.5000
L55.3586 3.5000
" />
<path d="M57.9586 4.7700
L57.9586 6.1000
" />
<path d="M57.9586 6.1000
L56.6286 6.1000
" />
<path d="M55.3586 3.5000
L55.3586 6.1000
" />
<path d="M55.3586 6.1000
L7.0386 6.1000
" />
<path d="M7.0386 0.9000
L7.0386 6.1000
" />
</g>
<g style="fill:#02FFEE; fill-opacity:0.4000; stroke:none;">
<circle cx="61.4986" cy="3.5000" r="1.3500" /> 
<circle cx="61.4986" cy="52.5000" r="1.3500" /> 
<circle cx="3.4986" cy="52.5000" r="1.3500" /> 
<circle cx="3.4986" cy="3.5000" r="1.3500" /> 
<path style="fill:#02FFEE; fill-opacity:0.4000; stroke:none;fill-rule:evenodd;"
d="M 57.4786,3.9200
55.7786,3.9200
55.7786,5.6200
57.4786,5.6200
Z" /> 
<circle cx="56.6286" cy="2.2300" r="0.8500" /> 
<circle cx="54.0886" cy="4.7700" r="0.8500" /> 
<circle cx="54.0886" cy="2.2300" r="0.8500" /> 
<circle cx="51.5486" cy="4.7700" r="0.8500" /> 
<circle cx="51.5486" cy="2.2300" r="0.8500" /> 
<circle cx="49.0086" cy="4.7700" r="0.8500" /> 
<circle cx="49.0086" cy="2.2300" r="0.8500" /> 
<circle cx="46.4686" cy="4.7700" r="0.8500" /> 
<circle cx="46.4686" cy="2.2300" r="0.8500" /> 
<circle cx="43.9286" cy="4.7700" r="0.8500" /> 
<circle cx="43.9286" cy="2.2300" r="0.8500" /> 
<circle cx="41.3886" cy="4.7700" r="0.8500" /> 
<circle cx="41.3886" cy="2.2300" r="0.8500" /> 
<circle cx="38.8486" cy="4.7700" r="0.8500" /> 
<circle cx="38.8486" cy="2.2300" r="0.8500" /> 
<circle cx="36.3086" cy="4.7700" r="0.8500" /> 
<circle cx="36.3086" cy="2.2300" r="0.8500" /> 
<circle cx="33.7686" cy="4.7700" r="0.8500" /> 
<circle cx="33.7686" cy="2.2300" r="0.8500" /> 
<circle cx="31.2286" cy="4.7700" r="0.8500" /> 
<circle cx="31.2286" cy="2.2300" r="0.8500" /> 
<circle cx="28.6886" cy="4.7700" r="0.8500" /> 
<circle cx="28.6886" cy="2.2300" r="0.8500" /> 
<circle cx="26.1486" cy="4.7700" r="0.8500" /> 
<circle cx="26.1486" cy="2.2300" r="0.8500" /> 
<circle cx="23.6086" cy="4.7700" r="0.8500" /> 
<circle cx="23.6086" cy="2.2300" r="0.8500" /> 
<circle cx="21.0686" cy="4.7700" r="0.8500" /> 
<circle cx="21.0686" cy="2.2300" r="0.8500" /> 
<circle cx="18.5286" cy="4.7700" r="0.8500" /> 
<circle cx="18.5286" cy="2.2300" r="0.8500" /> 
<circle cx="15.9886" cy="4.7700" r="0.8500" /> 
<circle cx="15.9886" cy="2.2300" r="0.8500" /> 
<circle cx="13.4486" cy="4.7700" r="0.8500" /> 
<circle cx="13.4486" cy="2.2300" r="0.8500" /> 
<circle cx="10.9086" cy="4.7700" r="0.8500" /> 
<circle cx="10.9086" cy="2.2300" r="0.8500" /> 
<circle cx="8.3686" cy="4.7700" r="0.8500" /> 
<circle cx="8.3686" cy="2.2300" r="0.8500" /> 
</g>
<g style="fill:none; 
stroke:#D0D2CD; stroke-width:0.1000; stroke-opacity:1; 
stroke-linecap:round; stroke-linejoin:round;">
<path d="M64.9986 37.0000
L64.9986 53.0000
" />
<path d="M61.9986 56.0000 A3.0000 3.0000 0.0 0 0 64.9986 53.0000" />
<path d="M60.4986 36.5000
L64.4986 36.5000
" />
<path d="M64.9986 37.0000 A0.5000 0.5000 0.0 0 0 64.4995 36.5000" />
<path d="M-0.0014 53.0000
L-0.0014 3.0000
" />
<path d="M60.4986 19.5000 A0.5000 0.5000 0.0 0 0 59.9986 20.0000" />
<path d="M64.9986 3.0000
L64.9986 19.0000
" />
<path d="M59.9986 36.0000 A0.5000 0.5000 0.0 0 0 60.4986 36.5000" />
<path d="M2.9986 0.0000
L61.9986 0.0000
" />
<path d="M2.9986 0.0000 A3.0000 3.0000 0.0 0 0 -0.0014 3.0000" />
<path d="M64.4986 19.5000
L60.4986 19.5000
" />
<path d="M64.4986 19.5000 A0.5000 0.5000 0.0 0 0 64.9986 19.0000" />
<path d="M64.9986 3.0000 A3.0000 3.0000 0.0 0 0 61.9986 0.0000" />
<path d="M61.9986 56.0000
L2.9986 56.0000
" />
<path d="M59.9986 20.0000
L59.9986 36.0000
" />
<path d="M-0.0014 53.0000 A3.0000 3.0000 0.0 0 0 2.9986 56.0000" />
</g>
<g style="fill:#000000; fill-opacity:1.0000; stroke:none;">
<circle cx="61.4986" cy="3.5000" r="1.3500" /> 
<circle cx="61.4986" cy="52.5000" r="1.3500" /> 
<circle cx="3.4986" cy="52.5000" r="1.3500" /> 
<circle cx="3.4986" cy="3.5000" r="1.3500" /> 
</g>
<g style="fill:#FFFFFF; fill-opacity:1.0000; stroke:none;">
<circle cx="56.6286" cy="4.7700" r="0.5000" /> 
</g>
<g style="fill:#FFFFFF; fill-opacity:1.0000; stroke:none;">
<circle cx="56.6286" cy="2.2300" r="0.5000" /> 
</g>
<g style="fill:#FFFFFF; fill-opacity:1.0000; stroke:none;">
<circle cx="54.0886" cy="4.7700" r="0.5000" /> 
</g>
<g style="fill:#FFFFFF; fill-opacity:1.0000; stroke:none;">
<circle cx="54.0886" cy="2.2300" r="0.5000" /> 
</g>
<g style="fill:#FFFFFF; fill-opacity:1.0000; stroke:none;">
<circle cx="51.5486" cy="4.7700" r="0.5000" /> 
</g>
<g style="fill:#FFFFFF; fill-opacity:1.0000; stroke:none;">
<circle cx="51.5486" cy="2.2300" r="0.5000" /> 
</g>
<g style="fill:#FFFFFF; fill-opacity:1.0000; stroke:none;">
<circle cx="49.0086" cy="4.7700" r="0.5000" /> 
</g>
<g style="fill:#FFFFFF; fill-opacity:1.0000; stroke:none;">
<circle cx="49.0086" cy="2.2300" r="0.5000" /> 
</g>
<g style="fill:#FFFFFF; fill-opacity:1.0000; stroke:none;">
<circle cx="46.4686" cy="4.7700" r="0.5000" /> 
</g>
<g style="fill:#FFFFFF; fill-opacity:1.0000; stroke:none;">
<circle cx="46.4686" cy="2.2300" r="0.5000" /> 
</g>
<g style="fill:#FFFFFF; fill-opacity:1.0000; stroke:none;">
<circle cx="43.9286" cy="4.7700" r="0.5000" /> 
</g>
<g style="fill:#FFFFFF; fill-opacity:1.0000; stroke:none;">
<circle cx="43.9286" cy="2.2300" r="0.5000" /> 
</g>
<g style="fill:#FFFFFF; fill-opacity:1.0000; stroke:none;">
<circle cx="41.3886" cy="4.7700" r="0.5000" /> 
</g>
<g style="fill:#FFFFFF; fill-opacity:1.0000; stroke:none;">
<circle cx="41.3886" cy="2.2300" r="0.5000" /> 
</g>
<g style="fill:#FFFFFF; fill-opacity:1.0000; stroke:none;">
<circle cx="38.8486" cy="4.7700" r="0.5000" /> 
</g>
<g style="fill:#FFFFFF; fill-opacity:1.0000; stroke:none;">
<circle cx="38.8486" cy="2.2300" r="0.5000" /> 
</g>
<g style="fill:#FFFFFF; fill-opacity:1.0000; stroke:none;">
<circle cx="36.3086" cy="4.7700" r="0.5000" /> 
</g>
<g style="fill:#FFFFFF; fill-opacity:1.0000; stroke:none;">
<circle cx="36.3086" cy="2.2300" r="0.5000" /> 
</g>
<g style="fill:#FFFFFF; fill-opacity:1.0000; stroke:none;">
<circle cx="33.7686" cy="4.7700" r="0.5000" /> 
</g>
<g style="fill:#FFFFFF; fill-opacity:1.0000; stroke:none;">
<circle cx="33.7686" cy="2.2300" r="0.5000" /> 
</g>
<g style="fill:#FFFFFF; fill-opacity:1.0000; stroke:none;">
<circle cx="31.2286" cy="4.7700" r="0.5000" /> 
</g>
<g style="fill:#FFFFFF; fill-opacity:1.0000; stroke:none;">
<circle cx="31.2286" cy="2.2300" r="0.5000" /> 
</g>
<g style="fill:#FFFFFF; fill-opacity:1.0000; stroke:none;">
<circle cx="28.6886" cy="4.7700" r="0.5000" /> 
</g>
<g style="fill:#FFFFFF; fill-opacity:1.0000; stroke:none;">
<circle cx="28.6886" cy="2.2300" r="0.5000" /> 
</g>
<g style="fill:#FFFFFF; fill-opacity:1.0000; stroke:none;">
<circle cx="26.1486" cy="4.7700" r="0.5000" /> 
</g>
<g style="fill:#FFFFFF; fill-opacity:1.0000; stroke:none;">
<circle cx="26.1486" cy="2.2300" r="0.5000" /> 
</g>
<g style="fill:#FFFFFF; fill-opacity:1.0000; stroke:none;">
<circle cx="23.6086" cy="4.7700" r="0.5000" /> 
</g>
<g style="fill:#FFFFFF; fill-opacity:1.0000; stroke:none;">
<circle cx="23.6086" cy="2.2300" r="0.5000" /> 
</g>
<g style="fill:#FFFFFF; fill-opacity:1.0000; stroke:none;">
<circle cx="21.0686" cy="4.7700" r="0.5000" /> 
</g>
<g style="fill:#FFFFFF; fill-opacity:1.0000; stroke:none;">
<circle cx="21.0686" cy="2.2300" r="0.5000" /> 
</g>
<g style="fill:#FFFFFF; fill-opacity:1.0000; stroke:none;">
<circle cx="18.5286" cy="4.7700" r="0.5000" /> 
</g>
<g style="fill:#FFFFFF; fill-opacity:1.0000; stroke:none;">
<circle cx="18.5286" cy="2.2300" r="0.5000" /> 
</g>
<g style="fill:#FFFFFF; fill-opacity:1.0000; stroke:none;">
<circle cx="15.9886" cy="4.7700" r="0.5000" /> 
</g>
<g style="fill:#FFFFFF; fill-opacity:1.0000; stroke:none;">
<circle cx="15.9886" cy="2.2300" r="0.5000" /> 
</g>
<g style="fill:#FFFFFF; fill-opacity:1.0000; stroke:none;">
<circle cx="13.4486" cy="4.7700" r="0.5000" /> 
</g>
<g style="fill:#FFFFFF; fill-opacity:1.0000; stroke:none;">
<circle cx="13.4486" cy="2.2300" r="0.5000" /> 
</g>
<g style="fill:#FFFFFF; fill-opacity:1.0000; stroke:none;">
<circle cx="10.9086" cy="4.7700" r="0.5000" /> 
</g>
<g style="fill:#FFFFFF; fill-opacity:1.0000; stroke:none;">
<circle cx="10.9086" cy="2.2300" r="0.5000" /> 
</g>
<g style="fill:#FFFFFF; fill-opacity:1.0000; stroke:none;">
<circle cx="8.3686" cy="4.7700" r="0.5000" /> 
</g>
<g style="fill:#FFFFFF; fill-opacity:1.0000; stroke:none;">
<circle cx="8.3686" cy="2.2300" r="0.5000" /> 
</g> 
</svg>
